<svg width="154" height="52" viewBox="0 0 154 52" fill="none" xmlns="http://www.w3.org/2000/svg">
<path d="M153.762 38.1979C153.762 45.6558 147.652 51.7658 140.194 51.7658H13.5679C6.11003 51.7658 0 45.6558 0 38.1979V14.0947C0 6.63685 6.11003 0.526855 13.5679 0.526855H140.194C147.652 0.526855 153.762 6.63685 153.762 14.0947V38.1979Z" fill="#404040"/>
<path d="M54.9269 14.9269H55.6569V19.5269H54.9269V18.6969C54.5769 19.2469 53.9969 19.6069 53.2169 19.6069C51.9069 19.6069 50.9769 18.5969 50.9769 17.2269C50.9769 15.8469 51.9069 14.8569 53.2169 14.8569C53.9969 14.8569 54.5769 15.2069 54.9269 15.7569V14.9269ZM53.3069 18.9169C54.2969 18.9169 54.9269 18.2069 54.9269 17.2269C54.9269 16.2469 54.2969 15.5469 53.3069 15.5469C52.3269 15.5469 51.6769 16.2469 51.6769 17.2269C51.6769 18.2069 52.3269 18.9169 53.3069 18.9169ZM59.1079 14.8569C60.0279 14.8569 60.9379 15.3969 60.9379 16.6969V19.5269H60.2179V16.7969C60.2179 15.9169 59.5979 15.4869 58.9179 15.4869C58.2279 15.4869 57.6279 15.9169 57.6279 16.7969V19.5269H56.9079V14.9269H57.6279V15.5469C57.9779 15.0669 58.5379 14.8569 59.1079 14.8569ZM66.0109 13.0269H66.7409V19.5269H66.0109V18.6969C65.6609 19.2469 65.0809 19.6069 64.3009 19.6069C62.9909 19.6069 62.0609 18.5969 62.0609 17.2269C62.0609 15.8469 62.9909 14.8569 64.3009 14.8569C65.0809 14.8569 65.6609 15.2069 66.0109 15.7569V13.0269ZM64.3909 18.9169C65.3809 18.9169 66.0109 18.2069 66.0109 17.2269C66.0109 16.2469 65.3809 15.5469 64.3909 15.5469C63.4109 15.5469 62.7609 16.2469 62.7609 17.2269C62.7609 18.2069 63.4109 18.9169 64.3909 18.9169ZM68.7119 15.7769C69.0619 15.1469 69.6819 14.8669 70.3319 14.8569V15.5469C69.6219 15.5569 68.7119 15.9269 68.7119 17.0469V19.5269H67.9919V14.9269H68.7119V15.7769ZM73.1411 19.6169C71.7611 19.6169 70.8011 18.5969 70.8011 17.2269C70.8011 15.8469 71.7611 14.8469 73.1411 14.8469C74.5211 14.8469 75.4811 15.8469 75.4811 17.2269C75.4811 18.5969 74.5211 19.6169 73.1411 19.6169ZM73.1411 18.9169C74.1111 18.9169 74.7511 18.1969 74.7511 17.2269C74.7511 16.2569 74.1111 15.5469 73.1411 15.5469C72.1711 15.5469 71.5211 16.2569 71.5211 17.2269C71.5211 18.1969 72.1711 18.9169 73.1411 18.9169ZM77.0354 13.9469C76.8154 13.9469 76.5954 13.7669 76.5954 13.4969C76.5954 13.2269 76.8154 13.0669 77.0354 13.0669C77.2554 13.0669 77.4754 13.2269 77.4754 13.4969C77.4754 13.7669 77.2554 13.9469 77.0354 13.9469ZM77.3954 19.5269H76.6754V14.9269H77.4054L77.3954 19.5269ZM82.5441 13.0269H83.2741V19.5269H82.5441V18.6969C82.1941 19.2469 81.6141 19.6069 80.8341 19.6069C79.5241 19.6069 78.5941 18.5969 78.5941 17.2269C78.5941 15.8469 79.5241 14.8569 80.8341 14.8569C81.6141 14.8569 82.1941 15.2069 82.5441 15.7569V13.0269ZM80.9241 18.9169C81.9141 18.9169 82.5441 18.2069 82.5441 17.2269C82.5441 16.2469 81.9141 15.5469 80.9241 15.5469C79.9441 15.5469 79.2941 16.2469 79.2941 17.2269C79.2941 18.2069 79.9441 18.9169 80.9241 18.9169ZM90.3371 14.9269H91.0671V19.5269H90.3371V18.6969C89.9871 19.2469 89.4071 19.6069 88.6271 19.6069C87.3171 19.6069 86.3871 18.5969 86.3871 17.2269C86.3871 15.8469 87.3171 14.8569 88.6271 14.8569C89.4071 14.8569 89.9871 15.2069 90.3371 15.7569V14.9269ZM88.7171 18.9169C89.7071 18.9169 90.3371 18.2069 90.3371 17.2269C90.3371 16.2469 89.7071 15.5469 88.7171 15.5469C87.7371 15.5469 87.0871 16.2469 87.0871 17.2269C87.0871 18.2069 87.7371 18.9169 88.7171 18.9169ZM94.7481 14.8569C96.0581 14.8569 96.9981 15.8669 96.9981 17.2369C96.9981 18.6169 96.0581 19.6069 94.7481 19.6069C93.9681 19.6069 93.3881 19.2569 93.0381 18.6969V21.3669H92.3181V14.9269H93.0381V15.7669C93.3881 15.2069 93.9681 14.8569 94.7481 14.8569ZM94.6581 18.9169C95.6381 18.9169 96.2881 18.2169 96.2881 17.2369C96.2881 16.2569 95.6381 15.5469 94.6581 15.5469C93.6781 15.5469 93.0381 16.2569 93.0381 17.2369C93.0381 18.2169 93.6781 18.9169 94.6581 18.9169ZM100.539 14.8569C101.849 14.8569 102.789 15.8669 102.789 17.2369C102.789 18.6169 101.849 19.6069 100.539 19.6069C99.7591 19.6069 99.1791 19.2569 98.8291 18.6969V21.3669H98.1091V14.9269H98.8291V15.7669C99.1791 15.2069 99.7591 14.8569 100.539 14.8569ZM100.449 18.9169C101.429 18.9169 102.079 18.2169 102.079 17.2369C102.079 16.2569 101.429 15.5469 100.449 15.5469C99.4691 15.5469 98.8291 16.2569 98.8291 17.2369C98.8291 18.2169 99.4691 18.9169 100.449 18.9169ZM108.102 19.6169C106.722 19.6169 105.762 18.5969 105.762 17.2269C105.762 15.8469 106.722 14.8469 108.102 14.8469C109.482 14.8469 110.442 15.8469 110.442 17.2269C110.442 18.5969 109.482 19.6169 108.102 19.6169ZM108.102 18.9169C109.072 18.9169 109.712 18.1969 109.712 17.2269C109.712 16.2569 109.072 15.5469 108.102 15.5469C107.132 15.5469 106.482 16.2569 106.482 17.2269C106.482 18.1969 107.132 18.9169 108.102 18.9169ZM113.756 14.8569C114.676 14.8569 115.586 15.3969 115.586 16.6969V19.5269H114.866V16.7969C114.866 15.9169 114.246 15.4869 113.566 15.4869C112.876 15.4869 112.276 15.9169 112.276 16.7969V19.5269H111.556V14.9269H112.276V15.5469C112.626 15.0669 113.186 14.8569 113.756 14.8569Z" fill="white"/>
<path d="M60.1248 34.7076C60.0168 38.0376 57.8928 40.4316 54.5088 40.4316C51.0348 40.4316 48.6588 37.9116 48.6588 34.4376C48.6588 30.9636 51.0348 28.4436 54.5088 28.4436C56.5788 28.4436 58.2348 29.3436 59.2428 30.7836L58.1268 31.5756C57.2988 30.4236 56.0028 29.8116 54.5088 29.8116C51.8268 29.8116 50.0088 31.7556 50.0088 34.4376C50.0088 37.1196 51.8268 39.0636 54.5088 39.0636C56.7228 39.0636 58.3608 37.6416 58.5948 35.3916H54.4548V34.1316H60.1248V34.7076ZM66.1757 40.4496C63.6917 40.4496 61.9637 38.6136 61.9637 36.1476C61.9637 33.6636 63.6917 31.8636 66.1757 31.8636C68.6597 31.8636 70.3877 33.6636 70.3877 36.1476C70.3877 38.6136 68.6597 40.4496 66.1757 40.4496ZM66.1757 39.1896C67.9217 39.1896 69.0737 37.8936 69.0737 36.1476C69.0737 34.4016 67.9217 33.1236 66.1757 33.1236C64.4297 33.1236 63.2597 34.4016 63.2597 36.1476C63.2597 37.8936 64.4297 39.1896 66.1757 39.1896ZM76.3535 40.4496C73.8695 40.4496 72.1415 38.6136 72.1415 36.1476C72.1415 33.6636 73.8695 31.8636 76.3535 31.8636C78.8375 31.8636 80.5655 33.6636 80.5655 36.1476C80.5655 38.6136 78.8375 40.4496 76.3535 40.4496ZM76.3535 39.1896C78.0995 39.1896 79.2515 37.8936 79.2515 36.1476C79.2515 34.4016 78.0995 33.1236 76.3535 33.1236C74.6075 33.1236 73.4375 34.4016 73.4375 36.1476C73.4375 37.8936 74.6075 39.1896 76.3535 39.1896ZM89.4292 32.0076H90.7432V39.6756C90.7432 42.0516 89.0512 43.7076 86.3872 43.7076C84.9472 43.7076 83.7232 43.1496 82.9672 42.2496L83.8492 41.5116C84.5152 42.2496 85.4332 42.5736 86.3872 42.5736C87.9172 42.5736 89.4292 41.6556 89.4292 39.6756V38.7936C88.7992 39.7836 87.7552 40.4316 86.3512 40.4316C83.9932 40.4316 82.3192 38.6136 82.3192 36.1476C82.3192 33.6816 83.9932 31.8816 86.3512 31.8816C87.7552 31.8816 88.7992 32.5116 89.4292 33.5016V32.0076ZM86.5132 39.1896C88.2772 39.1896 89.4292 37.9116 89.4292 36.1476C89.4292 34.3836 88.2772 33.1236 86.5132 33.1236C84.7492 33.1236 83.5792 34.3836 83.5792 36.1476C83.5792 37.9116 84.7492 39.1896 86.5132 39.1896ZM94.291 40.2876H92.995V28.5876H94.291V40.2876ZM100.397 31.8636C102.773 31.8636 104.357 33.6816 104.357 36.1476V36.5616H97.5714C97.7334 38.2176 98.8674 39.3156 100.505 39.3156C101.729 39.3156 102.575 38.7576 103.043 38.0556L103.961 38.7216C103.241 39.7836 102.017 40.4496 100.505 40.4496C97.9854 40.4496 96.3114 38.6136 96.3114 36.1476C96.3114 33.6816 97.9134 31.8636 100.397 31.8636ZM100.397 32.9436C98.7774 32.9436 97.7514 34.0416 97.5714 35.6616H103.151C102.971 34.0956 101.945 32.9436 100.397 32.9436ZM115.249 28.5876C117.013 28.5876 118.597 29.9916 118.597 32.1516C118.597 34.3116 117.013 35.7156 115.249 35.7156H111.325V40.2876H109.975V28.5876H115.249ZM115.051 34.4016C116.311 34.4016 117.229 33.4116 117.229 32.1516C117.229 30.9096 116.329 29.9196 115.051 29.9196H111.325V34.4016H115.051ZM121.783 40.2876H120.487V28.5876H121.783V40.2876ZM130.914 32.0076H132.228V40.2876H130.914V38.7936C130.284 39.7836 129.24 40.4316 127.836 40.4316C125.478 40.4316 123.804 38.6136 123.804 36.1476C123.804 33.6636 125.478 31.8816 127.836 31.8816C129.24 31.8816 130.284 32.5116 130.914 33.5016V32.0076ZM127.998 39.1896C129.78 39.1896 130.914 37.9116 130.914 36.1476C130.914 34.3836 129.78 33.1236 127.998 33.1236C126.234 33.1236 125.064 34.3836 125.064 36.1476C125.064 37.9116 126.234 39.1896 127.998 39.1896ZM140.185 32.0076H141.535L136.927 43.5996H135.649L136.945 40.2696L133.705 32.0076H135.055L137.611 38.4876L140.185 32.0076Z" fill="white"/>
<path d="M8.67065 42.6457V9.66943L38.3224 25.6858L8.67065 42.6457Z" fill="#5CA9B3"/>
<path d="M8.67065 9.66943L29.6515 30.6502L38.3224 25.6858L8.67065 9.66943Z" fill="#C8DB9B"/>
<path d="M29.4718 20.9009L8.67065 42.6455L38.3224 25.6856L29.4718 20.9009Z" fill="#AC5067"/>
<path d="M29.6517 30.65L38.3225 25.6856L29.4719 20.9009L24.7996 25.7979L29.6517 30.65Z" fill="#F4A676"/>
</svg>
