<svg width="154" height="52" viewBox="0 0 154 52" fill="none" xmlns="http://www.w3.org/2000/svg">
<path d="M153.762 38.2204C153.762 45.6783 147.652 51.7883 140.194 51.7883H13.5679C6.11003 51.7883 0 45.6783 0 38.2204V14.0948C0 6.63692 6.11003 0.526855 13.5679 0.526855H140.194C147.652 0.526855 153.762 6.63692 153.762 14.0948V38.2204Z" fill="#404040"/>
<path d="M58.5246 19.3765L57.8746 17.7765H54.8546L54.2046 19.3765H53.4046L56.0746 12.8765H56.6546L59.3246 19.3765H58.5246ZM55.1346 17.0765H57.5846L56.3546 14.0465L55.1346 17.0765ZM60.9732 19.3765L59.1632 14.7765H59.9132L61.3332 18.3865L62.7632 14.7765H63.5132L61.6832 19.3765H60.9732ZM67.9833 14.7765H68.7133V19.3765H67.9833V18.5465C67.6333 19.0965 67.0533 19.4565 66.2733 19.4565C64.9633 19.4565 64.0333 18.4465 64.0333 17.0765C64.0333 15.6965 64.9633 14.7065 66.2733 14.7065C67.0533 14.7065 67.6333 15.0565 67.9833 15.6065V14.7765ZM66.3633 18.7665C67.3533 18.7665 67.9833 18.0565 67.9833 17.0765C67.9833 16.0965 67.3533 15.3965 66.3633 15.3965C65.3833 15.3965 64.7333 16.0965 64.7333 17.0765C64.7333 18.0565 65.3833 18.7665 66.3633 18.7665ZM70.4043 13.7965C70.1843 13.7965 69.9643 13.6165 69.9643 13.3465C69.9643 13.0765 70.1843 12.9165 70.4043 12.9165C70.6243 12.9165 70.8443 13.0765 70.8443 13.3465C70.8443 13.6165 70.6243 13.7965 70.4043 13.7965ZM70.7643 19.3765H70.0443V14.7765H70.7743L70.7643 19.3765ZM72.823 19.3765H72.103V12.8765H72.823V19.3765ZM77.8954 14.7765H78.6254V19.3765H77.8954V18.5465C77.5454 19.0965 76.9654 19.4565 76.1854 19.4565C74.8754 19.4565 73.9454 18.4465 73.9454 17.0765C73.9454 15.6965 74.8754 14.7065 76.1854 14.7065C76.9654 14.7065 77.5454 15.0565 77.8954 15.6065V14.7765ZM76.2754 18.7665C77.2654 18.7665 77.8954 18.0565 77.8954 17.0765C77.8954 16.0965 77.2654 15.3965 76.2754 15.3965C75.2954 15.3965 74.6454 16.0965 74.6454 17.0765C74.6454 18.0565 75.2954 18.7665 76.2754 18.7665ZM82.3064 14.7065C83.6164 14.7065 84.5564 15.6965 84.5564 17.0765C84.5564 18.4465 83.6164 19.4565 82.3064 19.4565C81.5264 19.4565 80.9464 19.0965 80.5964 18.5465V19.3765H79.8764V12.8765H80.5964V15.6065C80.9464 15.0565 81.5264 14.7065 82.3064 14.7065ZM82.2164 18.7665C83.1964 18.7665 83.8464 18.0565 83.8464 17.0765C83.8464 16.0965 83.1964 15.3965 82.2164 15.3965C81.2364 15.3965 80.5964 16.0965 80.5964 17.0765C80.5964 18.0565 81.2364 18.7665 82.2164 18.7665ZM86.3875 19.3765H85.6675V12.8765H86.3875V19.3765ZM89.7799 14.6965C91.0999 14.6965 91.9799 15.7065 91.9799 17.0765V17.3065H88.2099C88.2999 18.2265 88.9299 18.8365 89.8399 18.8365C90.5199 18.8365 90.9899 18.5265 91.2499 18.1365L91.7599 18.5065C91.3599 19.0965 90.6799 19.4665 89.8399 19.4665C88.4399 19.4665 87.5099 18.4465 87.5099 17.0765C87.5099 15.7065 88.3999 14.6965 89.7799 14.6965ZM89.7799 15.2965C88.8799 15.2965 88.3099 15.9065 88.2099 16.8065H91.3099C91.2099 15.9365 90.6399 15.2965 89.7799 15.2965ZM97.301 19.4665C95.921 19.4665 94.961 18.4465 94.961 17.0765C94.961 15.6965 95.921 14.6965 97.301 14.6965C98.681 14.6965 99.641 15.6965 99.641 17.0765C99.641 18.4465 98.681 19.4665 97.301 19.4665ZM97.301 18.7665C98.271 18.7665 98.911 18.0465 98.911 17.0765C98.911 16.1065 98.271 15.3965 97.301 15.3965C96.331 15.3965 95.681 16.1065 95.681 17.0765C95.681 18.0465 96.331 18.7665 97.301 18.7665ZM102.955 14.7065C103.875 14.7065 104.785 15.2465 104.785 16.5465V19.3765H104.065V16.6465C104.065 15.7665 103.445 15.3365 102.765 15.3365C102.075 15.3365 101.475 15.7665 101.475 16.6465V19.3765H100.755V14.7765H101.475V15.3965C101.825 14.9165 102.385 14.7065 102.955 14.7065ZM110.22 15.3465H109.12V18.1765C109.12 18.6665 109.42 18.7865 109.76 18.7865H110.17V19.3765H109.5C108.8 19.3765 108.39 18.9765 108.39 18.2765V15.3465H107.75V14.7765H108.39V13.3765H109.12V14.7765H110.22V15.3465ZM113.414 14.7065C114.334 14.7065 115.244 15.2465 115.244 16.5465V19.3765H114.524V16.6465C114.524 15.7665 113.904 15.3365 113.224 15.3365C112.534 15.3365 111.934 15.7665 111.934 16.6465V19.3765H111.214V12.8765H111.934V15.3965C112.284 14.9165 112.844 14.7065 113.414 14.7065ZM118.637 14.6965C119.957 14.6965 120.837 15.7065 120.837 17.0765V17.3065H117.067C117.157 18.2265 117.787 18.8365 118.697 18.8365C119.377 18.8365 119.847 18.5265 120.107 18.1365L120.617 18.5065C120.217 19.0965 119.537 19.4665 118.697 19.4665C117.297 19.4665 116.367 18.4465 116.367 17.0765C116.367 15.7065 117.257 14.6965 118.637 14.6965ZM118.637 15.2965C117.737 15.2965 117.167 15.9065 117.067 16.8065H120.167C120.067 15.9365 119.497 15.2965 118.637 15.2965Z" fill="white"/>
<path d="M60.4718 40.5276L59.3018 37.6476H53.8658L52.6958 40.5276H51.2558L56.0618 28.8276H57.1058L61.9118 40.5276H60.4718ZM54.3698 36.3876H58.7798L56.5658 30.9336L54.3698 36.3876ZM67.8417 32.1216C70.1997 32.1216 71.8917 33.9396 71.8917 36.4056C71.8917 38.8896 70.1997 40.6716 67.8417 40.6716C66.4377 40.6716 65.3937 40.0416 64.7637 39.0336V43.8396H63.4677V32.2476H64.7637V33.7596C65.3937 32.7516 66.4377 32.1216 67.8417 32.1216ZM67.6797 39.4296C69.4437 39.4296 70.6137 38.1696 70.6137 36.4056C70.6137 34.6416 69.4437 33.3636 67.6797 33.3636C65.9157 33.3636 64.7637 34.6416 64.7637 36.4056C64.7637 38.1696 65.9157 39.4296 67.6797 39.4296ZM78.2655 32.1216C80.6235 32.1216 82.3155 33.9396 82.3155 36.4056C82.3155 38.8896 80.6235 40.6716 78.2655 40.6716C76.8615 40.6716 75.8175 40.0416 75.1875 39.0336V43.8396H73.8915V32.2476H75.1875V33.7596C75.8175 32.7516 76.8615 32.1216 78.2655 32.1216ZM78.1035 39.4296C79.8675 39.4296 81.0375 38.1696 81.0375 36.4056C81.0375 34.6416 79.8675 33.3636 78.1035 33.3636C76.3395 33.3636 75.1875 34.6416 75.1875 36.4056C75.1875 38.1696 76.3395 39.4296 78.1035 39.4296ZM87.5588 38.0256L88.6748 37.2876C89.0888 38.3856 90.5288 39.3756 92.4728 39.3756C94.4888 39.3756 95.3348 38.6196 95.3348 37.2696C95.3348 35.7396 93.0488 35.3796 91.9868 35.0736C90.8528 34.7676 87.9728 34.2816 87.9728 31.8696C87.9728 29.6736 89.8448 28.6296 92.3468 28.6296C94.5068 28.6296 96.2348 29.6736 96.6668 30.9516L95.5508 31.6176C95.2268 30.7536 93.8948 29.9796 92.2028 29.9796C90.4568 29.9796 89.5028 30.6636 89.5028 31.8156C89.5028 33.2556 91.5908 33.5616 92.7428 33.8676C93.7868 34.1736 96.8288 34.7856 96.8288 37.2156C96.8288 39.5196 95.1548 40.7256 92.3468 40.7256C89.8268 40.7256 88.1168 39.5556 87.5588 38.0256ZM102.635 33.2736H100.655V38.3676C100.655 39.2496 101.195 39.4656 101.807 39.4656H102.545V40.5276H101.339C100.079 40.5276 99.3414 39.8076 99.3414 38.5476V33.2736H98.1894V32.2476H99.3414V29.7276H100.655V32.2476H102.635V33.2736ZM107.963 40.6896C105.479 40.6896 103.751 38.8536 103.751 36.3876C103.751 33.9036 105.479 32.1036 107.963 32.1036C110.447 32.1036 112.175 33.9036 112.175 36.3876C112.175 38.8536 110.447 40.6896 107.963 40.6896ZM107.963 39.4296C109.709 39.4296 110.861 38.1336 110.861 36.3876C110.861 34.6416 109.709 33.3636 107.963 33.3636C106.217 33.3636 105.047 34.6416 105.047 36.3876C105.047 38.1336 106.217 39.4296 107.963 39.4296ZM115.477 33.7776C116.107 32.6436 117.223 32.1396 118.393 32.1216V33.3636C117.115 33.3816 115.477 34.0476 115.477 36.0636V40.5276H114.181V32.2476H115.477V33.7776ZM123.323 32.1036C125.699 32.1036 127.283 33.9216 127.283 36.3876V36.8016H120.497C120.659 38.4576 121.793 39.5556 123.431 39.5556C124.655 39.5556 125.501 38.9976 125.969 38.2956L126.887 38.9616C126.167 40.0236 124.943 40.6896 123.431 40.6896C120.911 40.6896 119.237 38.8536 119.237 36.3876C119.237 33.9216 120.839 32.1036 123.323 32.1036ZM123.323 33.1836C121.703 33.1836 120.677 34.2816 120.497 35.9016H126.077C125.897 34.3356 124.871 33.1836 123.323 33.1836Z" fill="white"/>
<path d="M26.9334 11.2644H11.0293C9.72644 11.2644 8.67065 12.3202 8.67065 13.623V40.5342C8.67065 41.8371 9.72644 42.8928 11.0293 42.8928H26.9334C28.2363 42.8928 29.2921 41.8371 29.2921 40.5342V13.623C29.2921 12.3426 28.2138 11.2644 26.9334 11.2644Z" fill="white"/>
<path d="M28.1466 15.0608H9.79395V37.2546H28.1466V15.0608Z" fill="#404040"/>
<path d="M22.7328 12.6792H15.2076C14.9156 12.6792 14.646 12.9263 14.646 13.2408C14.646 13.5553 14.8931 13.8024 15.2076 13.8024H22.7328C23.0249 13.8024 23.2944 13.5553 23.2944 13.2408C23.2944 12.9488 23.0473 12.6792 22.7328 12.6792Z" fill="#6639A6"/>
<path d="M17.1846 39.9277C17.1846 38.9393 17.9933 38.1082 18.9816 38.1082C19.97 38.1082 20.8012 38.9168 20.8012 39.9277C20.8012 40.9161 19.9925 41.7247 18.9816 41.7247C17.9933 41.7472 17.1846 40.9385 17.1846 39.9277Z" fill="#6639A6"/>
</svg>
